<mxfile host="app.diagrams.net" modified="2021-03-18T16:37:14.419Z" agent="5.0 (Windows NT 10.0; Win64; x64) AppleWebKit/537.36 (KHTML, like Gecko) Chrome/89.0.4389.90 Safari/537.36" etag="KHTuFm8n4HzlQ5ILgzEA" version="14.4.9" type="github">
  <diagram name="Page-1" id="e7e014a7-5840-1c2e-5031-d8a46d1fe8dd">
    <mxGraphModel dx="868" dy="450" grid="1" gridSize="10" guides="1" tooltips="1" connect="1" arrows="1" fold="1" page="1" pageScale="1" pageWidth="1169" pageHeight="826" background="#ffffff" math="0" shadow="0">
      <root>
        <mxCell id="0" />
        <mxCell id="1" parent="0" />
        <mxCell id="_qdsKKJTdr9DCj_0cPD0-41" value="" style="ellipse;whiteSpace=wrap;html=1;aspect=fixed;fillColor=#000000;" parent="1" vertex="1">
          <mxGeometry x="375" y="10" width="50" height="50" as="geometry" />
        </mxCell>
        <mxCell id="_qdsKKJTdr9DCj_0cPD0-42" value="" style="endArrow=classic;html=1;exitX=0.5;exitY=1;exitDx=0;exitDy=0;" parent="1" source="_qdsKKJTdr9DCj_0cPD0-41" edge="1">
          <mxGeometry width="50" height="50" relative="1" as="geometry">
            <mxPoint x="420" y="180" as="sourcePoint" />
            <mxPoint x="400" y="120" as="targetPoint" />
          </mxGeometry>
        </mxCell>
        <mxCell id="_qdsKKJTdr9DCj_0cPD0-46" style="edgeStyle=orthogonalEdgeStyle;rounded=0;orthogonalLoop=1;jettySize=auto;html=1;exitX=0.5;exitY=1;exitDx=0;exitDy=0;" parent="1" edge="1">
          <mxGeometry relative="1" as="geometry">
            <mxPoint x="400" y="220" as="targetPoint" />
            <mxPoint x="400" y="160" as="sourcePoint" />
          </mxGeometry>
        </mxCell>
        <mxCell id="_qdsKKJTdr9DCj_0cPD0-43" value="Ввод a" style="rounded=1;whiteSpace=wrap;html=1;gradientColor=none;fillColor=#FFFFFF;arcSize=50;" parent="1" vertex="1">
          <mxGeometry x="350" y="120" width="110" height="40" as="geometry" />
        </mxCell>
        <mxCell id="_qdsKKJTdr9DCj_0cPD0-49" style="edgeStyle=orthogonalEdgeStyle;rounded=0;orthogonalLoop=1;jettySize=auto;html=1;exitX=1;exitY=0.5;exitDx=0;exitDy=0;entryX=0.5;entryY=0;entryDx=0;entryDy=0;" parent="1" source="_qdsKKJTdr9DCj_0cPD0-47" target="_qdsKKJTdr9DCj_0cPD0-48" edge="1">
          <mxGeometry relative="1" as="geometry" />
        </mxCell>
        <mxCell id="_qdsKKJTdr9DCj_0cPD0-53" style="edgeStyle=orthogonalEdgeStyle;rounded=0;orthogonalLoop=1;jettySize=auto;html=1;exitX=0.5;exitY=1;exitDx=0;exitDy=0;fontSize=16;" parent="1" source="_qdsKKJTdr9DCj_0cPD0-47" edge="1">
          <mxGeometry relative="1" as="geometry">
            <mxPoint x="400" y="320" as="targetPoint" />
          </mxGeometry>
        </mxCell>
        <mxCell id="_qdsKKJTdr9DCj_0cPD0-47" value="" style="rhombus;whiteSpace=wrap;html=1;fillColor=#FFFFFF;gradientColor=none;" parent="1" vertex="1">
          <mxGeometry x="375" y="220" width="50" height="43" as="geometry" />
        </mxCell>
        <mxCell id="_qdsKKJTdr9DCj_0cPD0-57" style="edgeStyle=orthogonalEdgeStyle;rounded=0;orthogonalLoop=1;jettySize=auto;html=1;exitX=0.5;exitY=1;exitDx=0;exitDy=0;fontSize=16;" parent="1" source="_qdsKKJTdr9DCj_0cPD0-48" edge="1">
          <mxGeometry relative="1" as="geometry">
            <mxPoint x="625" y="400" as="targetPoint" />
          </mxGeometry>
        </mxCell>
        <mxCell id="_qdsKKJTdr9DCj_0cPD0-48" value="illegal value of a" style="rounded=1;whiteSpace=wrap;html=1;gradientColor=none;fillColor=#FFFFFF;arcSize=50;" parent="1" vertex="1">
          <mxGeometry x="570" y="293" width="110" height="40" as="geometry" />
        </mxCell>
        <mxCell id="_qdsKKJTdr9DCj_0cPD0-51" value="[a &amp;lt; 0]" style="text;html=1;strokeColor=none;fillColor=none;align=center;verticalAlign=middle;whiteSpace=wrap;rounded=0;perimeterSpacing=0;fontSize=16;" parent="1" vertex="1">
          <mxGeometry x="428" y="219" width="50" height="20" as="geometry" />
        </mxCell>
        <mxCell id="_qdsKKJTdr9DCj_0cPD0-54" value="[else]" style="text;html=1;strokeColor=none;fillColor=none;align=center;verticalAlign=middle;whiteSpace=wrap;rounded=0;perimeterSpacing=0;fontSize=16;" parent="1" vertex="1">
          <mxGeometry x="400" y="263" width="50" height="20" as="geometry" />
        </mxCell>
        <mxCell id="_qdsKKJTdr9DCj_0cPD0-59" value="" style="group" parent="1" vertex="1" connectable="0">
          <mxGeometry x="595" y="400" width="60" height="60" as="geometry" />
        </mxCell>
        <mxCell id="_qdsKKJTdr9DCj_0cPD0-58" value="" style="ellipse;whiteSpace=wrap;html=1;gradientColor=none;fontSize=16;fillColor=#FFFFFF;" parent="_qdsKKJTdr9DCj_0cPD0-59" vertex="1">
          <mxGeometry width="60" height="60" as="geometry" />
        </mxCell>
        <mxCell id="_qdsKKJTdr9DCj_0cPD0-56" value="" style="ellipse;whiteSpace=wrap;html=1;aspect=fixed;fontSize=16;fillColor=#000000;" parent="_qdsKKJTdr9DCj_0cPD0-59" vertex="1">
          <mxGeometry x="6.25" y="7" width="47.5" height="47.5" as="geometry" />
        </mxCell>
        <mxCell id="64BcI_9wWAsRSYKGbqmx-8" value="" style="edgeStyle=orthogonalEdgeStyle;rounded=0;orthogonalLoop=1;jettySize=auto;html=1;" edge="1" parent="1" source="64BcI_9wWAsRSYKGbqmx-1" target="64BcI_9wWAsRSYKGbqmx-7">
          <mxGeometry relative="1" as="geometry" />
        </mxCell>
        <mxCell id="64BcI_9wWAsRSYKGbqmx-1" value="x := 1&lt;br&gt;eps :=1e-10" style="rounded=1;whiteSpace=wrap;html=1;gradientColor=none;fillColor=#FFFFFF;arcSize=50;" vertex="1" parent="1">
          <mxGeometry x="345" y="320" width="110" height="40" as="geometry" />
        </mxCell>
        <mxCell id="64BcI_9wWAsRSYKGbqmx-16" style="edgeStyle=orthogonalEdgeStyle;rounded=0;orthogonalLoop=1;jettySize=auto;html=1;exitX=0.5;exitY=1;exitDx=0;exitDy=0;entryX=0.5;entryY=0;entryDx=0;entryDy=0;" edge="1" parent="1" source="64BcI_9wWAsRSYKGbqmx-7" target="64BcI_9wWAsRSYKGbqmx-11">
          <mxGeometry relative="1" as="geometry" />
        </mxCell>
        <mxCell id="64BcI_9wWAsRSYKGbqmx-7" value="xp := x" style="rounded=1;whiteSpace=wrap;html=1;gradientColor=none;fillColor=#FFFFFF;arcSize=50;" vertex="1" parent="1">
          <mxGeometry x="345" y="400" width="110" height="40" as="geometry" />
        </mxCell>
        <mxCell id="64BcI_9wWAsRSYKGbqmx-19" style="edgeStyle=orthogonalEdgeStyle;rounded=0;orthogonalLoop=1;jettySize=auto;html=1;exitX=0.5;exitY=1;exitDx=0;exitDy=0;entryX=0.5;entryY=0;entryDx=0;entryDy=0;" edge="1" parent="1" source="64BcI_9wWAsRSYKGbqmx-9" target="64BcI_9wWAsRSYKGbqmx-15">
          <mxGeometry relative="1" as="geometry" />
        </mxCell>
        <mxCell id="64BcI_9wWAsRSYKGbqmx-9" value="x := (x+a / x) / 2" style="rounded=1;whiteSpace=wrap;html=1;gradientColor=none;fillColor=#FFFFFF;arcSize=50;" vertex="1" parent="1">
          <mxGeometry x="345" y="550" width="110" height="40" as="geometry" />
        </mxCell>
        <mxCell id="64BcI_9wWAsRSYKGbqmx-18" style="edgeStyle=orthogonalEdgeStyle;rounded=0;orthogonalLoop=1;jettySize=auto;html=1;exitX=0.5;exitY=1;exitDx=0;exitDy=0;entryX=0.5;entryY=0;entryDx=0;entryDy=0;" edge="1" parent="1" source="64BcI_9wWAsRSYKGbqmx-11" target="64BcI_9wWAsRSYKGbqmx-9">
          <mxGeometry relative="1" as="geometry" />
        </mxCell>
        <mxCell id="64BcI_9wWAsRSYKGbqmx-11" value="" style="rhombus;whiteSpace=wrap;html=1;fillColor=#FFFFFF;gradientColor=none;" vertex="1" parent="1">
          <mxGeometry x="375" y="477" width="50" height="43" as="geometry" />
        </mxCell>
        <mxCell id="64BcI_9wWAsRSYKGbqmx-22" style="edgeStyle=orthogonalEdgeStyle;rounded=0;orthogonalLoop=1;jettySize=auto;html=1;exitX=1;exitY=0.5;exitDx=0;exitDy=0;entryX=-0.064;entryY=0.5;entryDx=0;entryDy=0;entryPerimeter=0;" edge="1" parent="1" source="64BcI_9wWAsRSYKGbqmx-15" target="64BcI_9wWAsRSYKGbqmx-21">
          <mxGeometry relative="1" as="geometry" />
        </mxCell>
        <mxCell id="64BcI_9wWAsRSYKGbqmx-28" style="edgeStyle=orthogonalEdgeStyle;rounded=0;orthogonalLoop=1;jettySize=auto;html=1;exitX=0;exitY=0.5;exitDx=0;exitDy=0;entryX=0;entryY=0.5;entryDx=0;entryDy=0;" edge="1" parent="1" source="64BcI_9wWAsRSYKGbqmx-15" target="64BcI_9wWAsRSYKGbqmx-11">
          <mxGeometry relative="1" as="geometry">
            <Array as="points">
              <mxPoint x="280" y="652" />
              <mxPoint x="280" y="499" />
            </Array>
          </mxGeometry>
        </mxCell>
        <mxCell id="64BcI_9wWAsRSYKGbqmx-15" value="" style="rhombus;whiteSpace=wrap;html=1;fillColor=#FFFFFF;gradientColor=none;" vertex="1" parent="1">
          <mxGeometry x="375" y="630" width="50" height="43" as="geometry" />
        </mxCell>
        <mxCell id="64BcI_9wWAsRSYKGbqmx-20" value="[x-xp &amp;lt; eps]" style="text;html=1;strokeColor=none;fillColor=none;align=center;verticalAlign=middle;whiteSpace=wrap;rounded=0;perimeterSpacing=0;fontSize=16;" vertex="1" parent="1">
          <mxGeometry x="428" y="620" width="100" height="30" as="geometry" />
        </mxCell>
        <mxCell id="64BcI_9wWAsRSYKGbqmx-26" style="edgeStyle=orthogonalEdgeStyle;rounded=0;orthogonalLoop=1;jettySize=auto;html=1;exitX=1;exitY=0.5;exitDx=0;exitDy=0;" edge="1" parent="1" source="64BcI_9wWAsRSYKGbqmx-21">
          <mxGeometry relative="1" as="geometry">
            <mxPoint x="730" y="652" as="targetPoint" />
          </mxGeometry>
        </mxCell>
        <mxCell id="64BcI_9wWAsRSYKGbqmx-21" value="Вывод x,&amp;nbsp;&lt;br&gt;X := math.sqrt(a)" style="rounded=1;whiteSpace=wrap;html=1;gradientColor=none;fillColor=#FFFFFF;arcSize=50;" vertex="1" parent="1">
          <mxGeometry x="560" y="632" width="110" height="40" as="geometry" />
        </mxCell>
        <mxCell id="64BcI_9wWAsRSYKGbqmx-23" value="" style="group" vertex="1" connectable="0" parent="1">
          <mxGeometry x="730" y="620" width="60" height="60" as="geometry" />
        </mxCell>
        <mxCell id="64BcI_9wWAsRSYKGbqmx-24" value="" style="ellipse;whiteSpace=wrap;html=1;gradientColor=none;fontSize=16;fillColor=#FFFFFF;" vertex="1" parent="64BcI_9wWAsRSYKGbqmx-23">
          <mxGeometry width="60" height="60" as="geometry" />
        </mxCell>
        <mxCell id="64BcI_9wWAsRSYKGbqmx-25" value="" style="ellipse;whiteSpace=wrap;html=1;aspect=fixed;fontSize=16;fillColor=#000000;" vertex="1" parent="64BcI_9wWAsRSYKGbqmx-23">
          <mxGeometry x="6.25" y="7" width="47.5" height="47.5" as="geometry" />
        </mxCell>
        <mxCell id="64BcI_9wWAsRSYKGbqmx-27" value="[else]" style="text;html=1;strokeColor=none;fillColor=none;align=center;verticalAlign=middle;whiteSpace=wrap;rounded=0;perimeterSpacing=0;fontSize=16;" vertex="1" parent="1">
          <mxGeometry x="310" y="630" width="50" height="20" as="geometry" />
        </mxCell>
      </root>
    </mxGraphModel>
  </diagram>
</mxfile>
